PathFileType	4	(X/Y/Z)	C:\Users\italobelli\Desktop\GitHub\PTbot_officialCBL\Personal_Results\SHRUG21_noisy2.trc
DataRate	CameraRate	NumFrames	NumMarkers	Units	OrigDataRate	OrigDataStartFrame	OrigNumFrames
112.250000	112.250000	34	9	m	112.250000	394	450
Frame#	Time		gu		centelbow		EpL		centpxt8		centijc7		ij		ts		aa		ai
			X1	Y1	Z1	X2	Y2	Z2	X3	Y3	Z3	X4	Y4	Z4	X5	Y5	Z5	X6	Y6	Z6	X7	Y7	Z7	X8	Y8	Z8	X9	Y9	Z9

394	3.5011	-0.093784	-0.012937	0.16398	-0.13282	-0.25158	0.17788	-0.11844	-0.24874	0.20659	-0.046816	-0.15316	-0.008669	-0.046816	0.031938	-0.008669	0	0	0	-0.13881	0.03426	0.047694	-0.1191	0.025307	0.16498	-0.16643	-0.075832	0.04923
395	3.51	-0.093799	-0.012912	0.16395	-0.13291	-0.25154	0.17788	-0.11852	-0.24869	0.20658	-0.046816	-0.15316	-0.008669	-0.046816	0.031938	-0.008669	0	0	0	-0.13883	0.034278	0.047687	-0.11909	0.025341	0.16497	-0.16644	-0.075814	0.049234
396	3.5189	-0.093813	-0.012887	0.16393	-0.13301	-0.25149	0.17787	-0.11861	-0.24865	0.20657	-0.046816	-0.15316	-0.008669	-0.046816	0.031938	-0.008669	0	0	0	-0.13884	0.034296	0.047679	-0.11908	0.025374	0.16496	-0.16645	-0.075796	0.049239
397	3.5278	-0.093825	-0.012862	0.1639	-0.1331	-0.25145	0.17787	-0.11869	-0.2486	0.20657	-0.046816	-0.15316	-0.008669	-0.046816	0.031938	-0.008669	0	0	0	-0.13885	0.034314	0.047671	-0.11907	0.025407	0.16495	-0.16646	-0.075778	0.049244
398	3.5367	-0.093836	-0.012838	0.16388	-0.13319	-0.2514	0.17787	-0.11877	-0.24855	0.20656	-0.046816	-0.15316	-0.008669	-0.046816	0.031938	-0.008669	0	0	0	-0.13885	0.034331	0.047663	-0.11906	0.02544	0.16494	-0.16647	-0.075761	0.049249
399	3.5457	-0.093846	-0.012814	0.16386	-0.13328	-0.25136	0.17787	-0.11885	-0.2485	0.20655	-0.046816	-0.15316	-0.008669	-0.046816	0.031938	-0.008669	0	0	0	-0.13886	0.034349	0.047655	-0.11905	0.025473	0.16493	-0.16647	-0.075743	0.049254
400	3.5546	-0.093855	-0.012789	0.16383	-0.13337	-0.25131	0.17786	-0.11893	-0.24845	0.20654	-0.046816	-0.15316	-0.008669	-0.046816	0.031938	-0.008669	0	0	0	-0.13886	0.034367	0.047646	-0.11903	0.025505	0.16492	-0.16647	-0.075726	0.04926
401	3.5635	-0.093862	-0.012765	0.16381	-0.13346	-0.25126	0.17786	-0.11901	-0.2484	0.20654	-0.046816	-0.15316	-0.008669	-0.046816	0.031938	-0.008669	0	0	0	-0.13886	0.034384	0.047637	-0.11902	0.025538	0.16491	-0.16647	-0.075709	0.049266
402	3.5724	-0.093868	-0.012742	0.16378	-0.13355	-0.25122	0.17786	-0.11909	-0.24835	0.20653	-0.046816	-0.15316	-0.008669	-0.046816	0.031938	-0.008669	0	0	0	-0.13886	0.034402	0.047629	-0.119	0.02557	0.1649	-0.16647	-0.075691	0.049271
403	3.5813	-0.093873	-0.012718	0.16376	-0.13364	-0.25117	0.17786	-0.11917	-0.2483	0.20652	-0.046816	-0.15316	-0.008669	-0.046816	0.031938	-0.008669	0	0	0	-0.13885	0.034419	0.04762	-0.11898	0.025602	0.16489	-0.16646	-0.075674	0.049277
404	3.5902	-0.093876	-0.012694	0.16373	-0.13373	-0.25112	0.17785	-0.11925	-0.24824	0.20651	-0.046816	-0.15316	-0.008669	-0.046816	0.031938	-0.008669	0	0	0	-0.13885	0.034437	0.04761	-0.11895	0.025634	0.16488	-0.16646	-0.075657	0.049284
405	3.5991	-0.093878	-0.012671	0.16371	-0.13382	-0.25107	0.17785	-0.11933	-0.24819	0.20651	-0.046816	-0.15316	-0.008669	-0.046816	0.031938	-0.008669	0	0	0	-0.13884	0.034454	0.047601	-0.11893	0.025666	0.16487	-0.16645	-0.07564	0.04929
406	3.608	-0.093879	-0.012647	0.16368	-0.13391	-0.25102	0.17785	-0.11941	-0.24814	0.2065	-0.046816	-0.15316	-0.008669	-0.046816	0.031938	-0.008669	0	0	0	-0.13883	0.034472	0.047592	-0.11891	0.025698	0.16486	-0.16644	-0.075622	0.049297
407	3.6169	-0.093878	-0.012624	0.16366	-0.13399	-0.25098	0.17785	-0.11949	-0.24809	0.20649	-0.046816	-0.15316	-0.008669	-0.046816	0.031938	-0.008669	0	0	0	-0.13882	0.034489	0.047583	-0.11888	0.02573	0.16485	-0.16642	-0.075605	0.049304
408	3.6258	-0.093876	-0.0126	0.16363	-0.13408	-0.25093	0.17785	-0.11956	-0.24804	0.20648	-0.046816	-0.15316	-0.008669	-0.046816	0.031938	-0.008669	0	0	0	-0.13881	0.034507	0.047573	-0.11885	0.025762	0.16484	-0.16641	-0.075588	0.049311
409	3.6347	-0.093873	-0.012577	0.16361	-0.13417	-0.25088	0.17784	-0.11964	-0.24799	0.20647	-0.046816	-0.15316	-0.008669	-0.046816	0.031938	-0.008669	0	0	0	-0.13879	0.034524	0.047564	-0.11882	0.025794	0.16483	-0.16639	-0.075571	0.049318
410	3.6437	-0.093869	-0.012553	0.16358	-0.13425	-0.25083	0.17784	-0.11971	-0.24794	0.20647	-0.046816	-0.15316	-0.008669	-0.046816	0.031938	-0.008669	0	0	0	-0.13877	0.034542	0.047554	-0.11879	0.025826	0.16482	-0.16637	-0.075554	0.049326
411	3.6526	-0.093863	-0.01253	0.16356	-0.13434	-0.25078	0.17784	-0.11979	-0.24789	0.20646	-0.046816	-0.15316	-0.008669	-0.046816	0.031938	-0.008669	0	0	0	-0.13876	0.034559	0.047545	-0.11876	0.025858	0.16481	-0.16635	-0.075537	0.049334
412	3.6615	-0.093857	-0.012506	0.16353	-0.13442	-0.25073	0.17784	-0.11986	-0.24784	0.20645	-0.046816	-0.15316	-0.008669	-0.046816	0.031938	-0.008669	0	0	0	-0.13874	0.034577	0.047536	-0.11872	0.02589	0.1648	-0.16633	-0.07552	0.049342
413	3.6704	-0.093849	-0.012482	0.16351	-0.1345	-0.25069	0.17783	-0.11993	-0.24779	0.20644	-0.046816	-0.15316	-0.008669	-0.046816	0.031938	-0.008669	0	0	0	-0.13872	0.034595	0.047526	-0.11869	0.025922	0.16479	-0.16631	-0.075502	0.049351
414	3.6793	-0.093839	-0.012459	0.16348	-0.13459	-0.25064	0.17783	-0.12	-0.24774	0.20643	-0.046816	-0.15316	-0.008669	-0.046816	0.031938	-0.008669	0	0	0	-0.13869	0.034612	0.047517	-0.11865	0.025954	0.16478	-0.16628	-0.075485	0.04936
415	3.6882	-0.093829	-0.012435	0.16346	-0.13467	-0.25059	0.17783	-0.12007	-0.24769	0.20642	-0.046816	-0.15316	-0.008669	-0.046816	0.031938	-0.008669	0	0	0	-0.13867	0.03463	0.047508	-0.11861	0.025986	0.16477	-0.16625	-0.075468	0.049369
416	3.6971	-0.093817	-0.012411	0.16343	-0.13475	-0.25054	0.17783	-0.12014	-0.24763	0.20641	-0.046816	-0.15316	-0.008669	-0.046816	0.031938	-0.008669	0	0	0	-0.13864	0.034648	0.047499	-0.11857	0.026018	0.16476	-0.16623	-0.07545	0.049378
417	3.706	-0.093804	-0.012387	0.16341	-0.13483	-0.25049	0.17782	-0.12021	-0.24758	0.2064	-0.046816	-0.15316	-0.008669	-0.046816	0.031938	-0.008669	0	0	0	-0.13862	0.034666	0.04749	-0.11853	0.02605	0.16475	-0.1662	-0.075433	0.049388
418	3.7149	-0.09379	-0.012363	0.16339	-0.1349	-0.25044	0.17782	-0.12027	-0.24753	0.20639	-0.046816	-0.15316	-0.008669	-0.046816	0.031938	-0.008669	0	0	0	-0.13859	0.034684	0.047481	-0.11848	0.026082	0.16474	-0.16616	-0.075415	0.049398
419	3.7238	-0.093774	-0.012339	0.16336	-0.13498	-0.2504	0.17782	-0.12034	-0.24748	0.20638	-0.046816	-0.15316	-0.008669	-0.046816	0.031938	-0.008669	0	0	0	-0.13856	0.034703	0.047473	-0.11844	0.026115	0.16473	-0.16613	-0.075398	0.049409
420	3.7327	-0.093758	-0.012314	0.16334	-0.13505	-0.25035	0.17781	-0.1204	-0.24743	0.20637	-0.046816	-0.15316	-0.008669	-0.046816	0.031938	-0.008669	0	0	0	-0.13853	0.034721	0.047465	-0.11839	0.026147	0.16472	-0.1661	-0.07538	0.04942
421	3.7416	-0.09374	-0.012289	0.16332	-0.13513	-0.2503	0.17781	-0.12046	-0.24738	0.20636	-0.046816	-0.15316	-0.008669	-0.046816	0.031938	-0.008669	0	0	0	-0.1385	0.034739	0.047456	-0.11834	0.02618	0.16471	-0.16606	-0.075362	0.049431
422	3.7506	-0.093721	-0.012264	0.1633	-0.1352	-0.25025	0.1778	-0.12052	-0.24733	0.20635	-0.046816	-0.15316	-0.008669	-0.046816	0.031938	-0.008669	0	0	0	-0.13847	0.034758	0.047449	-0.1183	0.026213	0.1647	-0.16603	-0.075344	0.049442
423	3.7595	-0.0937	-0.012239	0.16328	-0.13527	-0.25021	0.1778	-0.12058	-0.24728	0.20634	-0.046816	-0.15316	-0.008669	-0.046816	0.031938	-0.008669	0	0	0	-0.13843	0.034777	0.047441	-0.11825	0.026246	0.16469	-0.16599	-0.075326	0.049454
424	3.7684	-0.093679	-0.012214	0.16326	-0.13534	-0.25016	0.1778	-0.12064	-0.24723	0.20633	-0.046816	-0.15316	-0.008669	-0.046816	0.031938	-0.008669	0	0	0	-0.1384	0.034796	0.047434	-0.11819	0.026279	0.16468	-0.16595	-0.075308	0.049467
425	3.7773	-0.093656	-0.012188	0.16323	-0.13541	-0.25011	0.17779	-0.12069	-0.24718	0.20632	-0.046816	-0.15316	-0.008669	-0.046816	0.031938	-0.008669	0	0	0	-0.13836	0.034815	0.047426	-0.11814	0.026312	0.16467	-0.16591	-0.07529	0.04948
426	3.7862	-0.093633	-0.012162	0.16321	-0.13548	-0.25007	0.17778	-0.12074	-0.24713	0.2063	-0.046816	-0.15316	-0.008669	-0.046816	0.031938	-0.008669	0	0	0	-0.13833	0.034834	0.04742	-0.11809	0.026346	0.16466	-0.16587	-0.075271	0.049493
427	3.7951	-0.093608	-0.012136	0.16319	-0.13554	-0.25002	0.17778	-0.1208	-0.24708	0.20629	-0.046816	-0.15316	-0.008669	-0.046816	0.031938	-0.008669	0	0	0	-0.13829	0.034854	0.047413	-0.11803	0.02638	0.16465	-0.16583	-0.075253	0.049506
